<svg version="1.1" id="Layer_1" xmlns="http://www.w3.org/2000/svg" xmlns:xlink="http://www.w3.org/1999/xlink" x="0px" y="0px"
	 width="100%" viewBox="0 0 500 500" enable-background="new 0 0 500 500" xml:space="preserve">
<path fill="transparent" opacity="1.000000" stroke="none" 
	d="
M284.000000,501.000000 
	C189.333359,501.000000 95.166710,501.000000 1.000051,501.000000 
	C1.000034,334.333405 1.000034,167.666794 1.000017,1.000140 
	C167.666565,1.000093 334.333130,1.000093 500.999756,1.000047 
	C500.999847,167.666519 500.999847,334.333038 500.999939,500.999786 
	C428.833344,501.000000 356.666656,501.000000 284.000000,501.000000 
M350.605927,310.562714 
	C353.892700,310.037384 357.168671,309.181335 360.469116,309.073181 
	C364.311218,308.947357 365.346832,307.005768 365.954224,303.584137 
	C371.770813,270.817932 377.706848,238.072723 383.701416,205.338470 
	C385.491669,195.562469 387.573608,185.839905 389.603607,175.684219 
	C383.518982,174.401703 377.932648,173.224228 371.833862,171.938736 
	C365.485077,204.959686 359.244690,237.417038 352.752289,271.184906 
	C351.803375,268.419434 351.262024,266.915222 350.769623,265.395111 
	C346.823975,253.214233 343.076538,240.964996 338.891602,228.867050 
	C335.196198,218.184143 334.986603,218.622742 323.977600,218.756729 
	C318.754150,218.820282 317.002594,220.726868 315.810272,225.541809 
	C312.904205,237.277832 309.283630,248.836929 305.950775,260.467285 
	C305.500000,260.451843 305.049225,260.436371 304.598450,260.420929 
	C301.566772,239.626541 298.535095,218.832138 295.465881,197.780273 
	C290.264801,198.282822 285.308105,198.746140 280.356689,199.259674 
	C279.725586,199.325119 279.121704,199.652817 278.247192,199.945343 
	C281.345337,233.346130 286.936005,266.213226 295.161224,298.624420 
	C296.154266,298.751129 296.805634,298.877045 297.461853,298.911652 
	C312.511322,299.705902 312.515717,299.705383 317.014709,285.186340 
	C320.404205,274.247803 323.780945,263.305328 327.437439,251.478149 
	C328.233856,253.939789 328.715790,255.508331 329.247284,257.059875 
	C334.902588,273.569550 340.512177,290.095367 346.311737,306.554260 
	C346.874451,308.151276 348.625092,309.329712 350.605927,310.562714 
M120.813225,242.333466 
	C114.230553,250.399612 111.999657,259.670593 113.001549,269.912323 
	C115.481987,295.268402 141.092056,308.603088 162.542755,295.666595 
	C165.611267,301.103516 172.155350,303.235687 179.947495,301.337311 
	C185.059158,300.092010 186.639465,297.645966 186.701736,290.194275 
	C186.792252,279.364105 186.741165,268.532684 186.735992,257.701813 
	C186.732956,251.370148 187.172165,244.986664 186.482773,238.728897 
	C186.143265,235.647034 184.452896,231.586899 182.049973,230.078766 
	C175.791367,226.150772 166.166565,228.997223 161.812576,235.223053 
	C156.116974,229.794312 149.222366,227.969223 141.608765,229.151917 
	C133.104111,230.473022 126.698563,235.399185 120.813225,242.333466 
M228.920471,245.469833 
	C224.089996,240.640884 219.528610,235.489136 214.303558,231.133530 
	C212.048080,229.253403 208.035583,227.594406 205.482391,228.283737 
	C194.269745,231.310974 191.580994,242.177933 199.673264,250.285721 
	C204.581314,255.203247 209.721207,259.889374 215.600983,265.482300 
	C209.114273,271.552887 203.215820,276.507782 198.079407,282.155701 
	C196.002182,284.439819 194.036224,288.618378 194.689377,291.279633 
	C197.414856,302.384918 208.604355,305.244476 216.594528,297.328186 
	C221.517136,292.451080 226.303894,287.436859 231.344330,282.287384 
	C237.087341,288.076691 242.042450,293.496155 247.490402,298.364044 
	C249.814926,300.441040 253.398483,302.896667 256.007660,302.504425 
	C261.881622,301.621460 265.789093,297.032745 268.207275,291.701111 
	C270.267212,287.159332 266.930786,284.074341 264.165558,281.291351 
	C259.008240,276.100922 253.559326,271.200256 247.488174,265.478149 
	C253.624268,259.546112 259.210419,254.561676 264.250183,249.075317 
	C266.362000,246.776398 268.821198,243.225555 268.489746,240.572815 
	C267.746704,234.625473 263.045227,230.741974 257.817657,228.250610 
	C253.438629,226.163666 250.204773,229.252762 247.316650,232.085434 
	C242.678528,236.634506 238.099365,241.249481 233.648682,245.980881 
	C232.016937,247.715530 230.810715,247.971329 228.920471,245.469833 
M415.806091,256.562256 
	C415.806091,254.110031 415.806091,251.657822 415.806091,248.793686 
	C422.368073,248.372299 428.417664,247.983810 434.563690,247.589127 
	C434.563690,241.539322 434.563690,235.959671 434.563690,230.300293 
	C428.189850,230.300293 422.121948,230.300293 415.560913,230.300293 
	C415.560913,218.043808 415.560913,205.981415 415.560913,193.359467 
	C423.929260,193.359467 432.207825,193.359467 440.639099,193.359467 
	C440.639099,187.079697 440.639099,181.357437 440.639099,175.828644 
	C425.933716,175.828644 411.573029,175.828644 397.781677,175.828644 
	C397.781677,219.285767 397.781677,262.053406 397.781677,304.894836 
	C412.963165,304.894836 427.342133,304.894836 441.621796,304.894836 
	C441.621796,298.674011 441.621796,292.966522 441.621796,286.850128 
	C432.924225,286.850128 424.655457,286.850128 415.815521,286.850128 
	C415.815521,276.801849 415.815521,267.173187 415.806091,256.562256 
M62.254635,281.981781 
	C63.769558,290.001099 67.420303,296.870239 75.591660,299.167450 
	C82.025009,300.976074 88.941879,301.460480 95.664963,301.613953 
	C97.826279,301.663300 101.049629,299.270996 102.082039,297.161346 
	C106.887146,287.342407 102.359566,279.684845 91.722122,279.050537 
	C88.357224,278.849823 86.161430,277.480499 86.075470,274.080475 
	C85.900391,267.155518 86.023079,260.223053 86.023079,253.270813 
	C89.350273,253.270813 92.146996,253.231949 94.942329,253.277878 
	C104.483353,253.434586 107.087486,250.872284 107.080170,241.242508 
	C107.079163,239.912018 107.071198,238.572250 106.923660,237.252747 
	C106.309364,231.758896 103.750954,229.288483 98.137894,229.050507 
	C94.212234,228.884094 90.273834,229.018402 85.896492,229.018402 
	C85.896492,223.685883 86.152168,218.705170 85.789955,213.769806 
	C85.605431,211.255478 85.058258,207.935165 83.377563,206.519272 
	C78.326309,202.263916 72.101967,203.050690 66.301949,204.814163 
	C61.502171,206.273529 61.694664,210.799423 61.646534,214.829346 
	C61.590019,219.561249 61.633297,224.294342 61.633297,228.961884 
	C51.802448,229.115250 49.377193,230.564667 49.166817,237.104782 
	C49.026154,241.477676 48.841461,246.596252 50.907219,250.044907 
	C52.424362,252.577713 57.557991,252.944214 62.124096,254.671005 
	C62.124096,262.847473 62.124096,271.988098 62.254635,281.981781 
z"/>
<path fill="#FCFEFE" opacity="1.000000" stroke="none" 
	d="
M350.215088,310.632599 
	C348.625092,309.329712 346.874451,308.151276 346.311737,306.554260 
	C340.512177,290.095367 334.902588,273.569550 329.247284,257.059875 
	C328.715790,255.508331 328.233856,253.939789 327.437439,251.478149 
	C323.780945,263.305328 320.404205,274.247803 317.014709,285.186340 
	C312.515717,299.705383 312.511322,299.705902 297.461853,298.911652 
	C296.805634,298.877045 296.154266,298.751129 295.161224,298.624420 
	C286.936005,266.213226 281.345337,233.346130 278.247192,199.945343 
	C279.121704,199.652817 279.725586,199.325119 280.356689,199.259674 
	C285.308105,198.746140 290.264801,198.282822 295.465881,197.780273 
	C298.535095,218.832138 301.566772,239.626541 304.598450,260.420929 
	C305.049225,260.436371 305.500000,260.451843 305.950775,260.467285 
	C309.283630,248.836929 312.904205,237.277832 315.810272,225.541809 
	C317.002594,220.726868 318.754150,218.820282 323.977600,218.756729 
	C334.986603,218.622742 335.196198,218.184143 338.891602,228.867050 
	C343.076538,240.964996 346.823975,253.214233 350.769623,265.395111 
	C351.262024,266.915222 351.803375,268.419434 352.752289,271.184906 
	C359.244690,237.417038 365.485077,204.959686 371.833862,171.938736 
	C377.932648,173.224228 383.518982,174.401703 389.603607,175.684219 
	C387.573608,185.839905 385.491669,195.562469 383.701416,205.338470 
	C377.706848,238.072723 371.770813,270.817932 365.954224,303.584137 
	C365.346832,307.005768 364.311218,308.947357 360.469116,309.073181 
	C357.168671,309.181335 353.892700,310.037384 350.215088,310.632599 
z"/>
<path fill="#FCFEFE" opacity="1.000000" stroke="none" 
	d="
M121.035309,242.053650 
	C126.698563,235.399185 133.104111,230.473022 141.608765,229.151917 
	C149.222366,227.969223 156.116974,229.794312 161.812576,235.223053 
	C166.166565,228.997223 175.791367,226.150772 182.049973,230.078766 
	C184.452896,231.586899 186.143265,235.647034 186.482773,238.728897 
	C187.172165,244.986664 186.732956,251.370148 186.735992,257.701813 
	C186.741165,268.532684 186.792252,279.364105 186.701736,290.194275 
	C186.639465,297.645966 185.059158,300.092010 179.947495,301.337311 
	C172.155350,303.235687 165.611267,301.103516 162.542755,295.666595 
	C141.092056,308.603088 115.481987,295.268402 113.001549,269.912323 
	C111.999657,259.670593 114.230553,250.399612 121.035309,242.053650 
M142.612381,275.161469 
	C147.357666,278.046387 152.119354,278.189972 156.583237,274.757172 
	C160.668213,271.615753 162.147369,267.219635 160.870255,262.282166 
	C159.666870,257.629761 156.644348,254.394699 151.755417,253.316574 
	C146.605392,252.180893 141.438263,254.698837 138.761047,259.568390 
	C135.794250,264.964630 136.749496,269.452087 142.612381,275.161469 
z"/>
<path fill="#FCFEFE" opacity="1.000000" stroke="none" 
	d="
M229.156937,245.719574 
	C230.810715,247.971329 232.016937,247.715530 233.648682,245.980881 
	C238.099365,241.249481 242.678528,236.634506 247.316650,232.085434 
	C250.204773,229.252762 253.438629,226.163666 257.817657,228.250610 
	C263.045227,230.741974 267.746704,234.625473 268.489746,240.572815 
	C268.821198,243.225555 266.362000,246.776398 264.250183,249.075317 
	C259.210419,254.561676 253.624268,259.546112 247.488174,265.478149 
	C253.559326,271.200256 259.008240,276.100922 264.165558,281.291351 
	C266.930786,284.074341 270.267212,287.159332 268.207275,291.701111 
	C265.789093,297.032745 261.881622,301.621460 256.007660,302.504425 
	C253.398483,302.896667 249.814926,300.441040 247.490402,298.364044 
	C242.042450,293.496155 237.087341,288.076691 231.344330,282.287384 
	C226.303894,287.436859 221.517136,292.451080 216.594528,297.328186 
	C208.604355,305.244476 197.414856,302.384918 194.689377,291.279633 
	C194.036224,288.618378 196.002182,284.439819 198.079407,282.155701 
	C203.215820,276.507782 209.114273,271.552887 215.600983,265.482300 
	C209.721207,259.889374 204.581314,255.203247 199.673264,250.285721 
	C191.580994,242.177933 194.269745,231.310974 205.482391,228.283737 
	C208.035583,227.594406 212.048080,229.253403 214.303558,231.133530 
	C219.528610,235.489136 224.089996,240.640884 229.156937,245.719574 
z"/>
<path fill="#FCFEFE" opacity="1.000000" stroke="none" 
	d="
M415.810791,257.053406 
	C415.815521,267.173187 415.815521,276.801849 415.815521,286.850128 
	C424.655457,286.850128 432.924225,286.850128 441.621796,286.850128 
	C441.621796,292.966522 441.621796,298.674011 441.621796,304.894836 
	C427.342133,304.894836 412.963165,304.894836 397.781677,304.894836 
	C397.781677,262.053406 397.781677,219.285767 397.781677,175.828644 
	C411.573029,175.828644 425.933716,175.828644 440.639099,175.828644 
	C440.639099,181.357437 440.639099,187.079697 440.639099,193.359467 
	C432.207825,193.359467 423.929260,193.359467 415.560913,193.359467 
	C415.560913,205.981415 415.560913,218.043808 415.560913,230.300293 
	C422.121948,230.300293 428.189850,230.300293 434.563690,230.300293 
	C434.563690,235.959671 434.563690,241.539322 434.563690,247.589127 
	C428.417664,247.983810 422.368073,248.372299 415.806091,248.793686 
	C415.806091,251.657822 415.806091,254.110031 415.810791,257.053406 
z"/>
<path fill="#FDFEFF" opacity="1.000000" stroke="none" 
	d="
M62.189365,281.555267 
	C62.124096,271.988098 62.124096,262.847473 62.124096,254.671005 
	C57.557991,252.944214 52.424362,252.577713 50.907219,250.044907 
	C48.841461,246.596252 49.026154,241.477676 49.166817,237.104782 
	C49.377193,230.564667 51.802448,229.115250 61.633297,228.961884 
	C61.633297,224.294342 61.590019,219.561249 61.646534,214.829346 
	C61.694664,210.799423 61.502171,206.273529 66.301949,204.814163 
	C72.101967,203.050690 78.326309,202.263916 83.377563,206.519272 
	C85.058258,207.935165 85.605431,211.255478 85.789955,213.769806 
	C86.152168,218.705170 85.896492,223.685883 85.896492,229.018402 
	C90.273834,229.018402 94.212234,228.884094 98.137894,229.050507 
	C103.750954,229.288483 106.309364,231.758896 106.923660,237.252747 
	C107.071198,238.572250 107.079163,239.912018 107.080170,241.242508 
	C107.087486,250.872284 104.483353,253.434586 94.942329,253.277878 
	C92.146996,253.231949 89.350273,253.270813 86.023079,253.270813 
	C86.023079,260.223053 85.900391,267.155518 86.075470,274.080475 
	C86.161430,277.480499 88.357224,278.849823 91.722122,279.050537 
	C102.359566,279.684845 106.887146,287.342407 102.082039,297.161346 
	C101.049629,299.270996 97.826279,301.663300 95.664963,301.613953 
	C88.941879,301.460480 82.025009,300.976074 75.591660,299.167450 
	C67.420303,296.870239 63.769558,290.001099 62.189365,281.555267 
z"/>
<path fill="#0FBAD0" opacity="1.000000" stroke="none" 
	d="
M142.299133,274.939697 
	C136.749496,269.452087 135.794250,264.964630 138.761047,259.568390 
	C141.438263,254.698837 146.605392,252.180893 151.755417,253.316574 
	C156.644348,254.394699 159.666870,257.629761 160.870255,262.282166 
	C162.147369,267.219635 160.668213,271.615753 156.583237,274.757172 
	C152.119354,278.189972 147.357666,278.046387 142.299133,274.939697 
z"/>
</svg>