<svg version="1.1" id="Layer_1" xmlns="http://www.w3.org/2000/svg" xmlns:xlink="http://www.w3.org/1999/xlink" x="0px" y="0px"
	 width="100%" viewBox="0 0 413 155" enable-background="new 0 0 413 155" xml:space="preserve">
<path fill="transparent" opacity="1.000000" stroke="none" 
	d="
M264.000000,156.000000 
	C176.000015,156.000000 88.500038,156.000000 1.000047,156.000000 
	C1.000031,104.333366 1.000031,52.666733 1.000016,1.000075 
	C138.666611,1.000050 276.333221,1.000050 413.999878,1.000025 
	C413.999908,52.666592 413.999908,104.333183 413.999939,155.999878 
	C364.166656,156.000000 314.333344,156.000000 264.000000,156.000000 
M304.975372,132.559830 
	C305.146942,133.029434 305.312469,133.501358 305.491028,133.968292 
	C310.020447,145.813141 310.000427,145.644119 322.511749,144.144089 
	C326.346588,143.684326 327.746674,142.278915 328.438904,138.472809 
	C335.863312,97.652061 343.505157,56.870884 351.077698,16.077070 
	C351.396332,14.360723 351.620453,12.626837 351.930878,10.629094 
	C345.873535,9.356060 340.415558,8.208988 334.373688,6.939209 
	C328.104095,39.313992 321.932709,71.181526 315.761353,103.049065 
	C315.205963,103.016129 314.650574,102.983185 314.095154,102.950241 
	C313.483459,101.099396 312.856140,99.253540 312.262573,97.396881 
	C308.914001,86.922386 305.788727,76.370407 302.175568,65.988152 
	C297.689880,53.098701 297.521820,53.265182 284.129669,53.933239 
	C281.069397,54.085899 279.800934,55.178604 279.032715,58.059345 
	C276.284973,68.363045 273.313629,78.607826 270.342255,88.850372 
	C269.903168,90.363869 269.008026,91.745071 268.323914,93.187492 
	C267.770813,93.100739 267.217743,93.013992 266.664642,92.927238 
	C263.795258,73.050270 260.925842,53.173294 257.980530,32.770412 
	C252.377945,33.346375 246.827850,33.916943 241.018463,34.514164 
	C241.018463,36.086838 240.861984,37.242470 241.041367,38.343372 
	C245.540558,65.955719 249.762650,93.618820 254.741608,121.144913 
	C257.063568,133.981995 257.739716,133.736908 270.605591,134.371384 
	C273.903748,134.534027 275.321503,133.512360 276.250092,130.420288 
	C279.892303,118.291885 283.765594,106.232819 287.567322,94.152489 
	C288.032440,92.674583 288.583954,91.223885 289.095428,89.760574 
	C289.616791,89.737862 290.138153,89.715157 290.659515,89.692444 
	C295.345337,103.738335 300.031189,117.784218 304.975372,132.559830 
M125.160812,131.164948 
	C128.729462,137.907700 135.083481,136.997482 140.970490,136.554398 
	C146.462036,136.141052 148.893082,133.679886 148.953369,128.171494 
	C149.157318,109.537193 149.229599,90.894386 148.789749,72.268112 
	C148.727646,69.637939 146.113663,65.852325 143.691986,64.724197 
	C136.753662,61.492016 129.099136,63.999752 124.356270,69.912994 
	C112.201614,61.474674 100.474266,61.918137 89.283852,71.239227 
	C70.841225,86.601074 70.370720,112.251076 88.234024,128.470123 
	C99.460320,138.663071 112.258430,139.488815 125.160812,131.164948 
M230.366470,79.420776 
	C230.541580,77.648552 231.258179,75.722260 230.804794,74.128876 
	C227.639984,63.006588 216.779846,60.123966 208.709351,68.130692 
	C207.763519,69.069077 206.821396,70.011871 205.899979,70.974106 
	C202.040054,75.005020 198.188644,79.044106 194.068237,83.358612 
	C188.049408,77.233269 183.033234,71.632309 177.442154,66.680473 
	C175.180496,64.677383 170.576614,62.244724 168.926941,63.215733 
	C164.432419,65.861237 160.083115,69.671730 157.307938,74.053925 
	C154.691208,78.185913 158.699493,81.816345 161.643677,84.738693 
	C166.706665,89.764145 171.973160,94.584579 178.559769,100.822098 
	C175.939407,102.475502 174.154861,103.225014 172.866226,104.482643 
	C168.338974,108.900978 163.603058,113.197784 159.730988,118.153755 
	C157.963608,120.415848 156.415176,125.025795 157.535812,126.997276 
	C162.887405,136.412125 170.122330,142.850082 179.412933,132.071442 
	C181.256363,129.932755 183.489059,128.132919 185.377960,126.029320 
	C188.015198,123.092369 190.497971,120.016708 193.430267,116.546669 
	C199.860077,123.135086 204.853027,128.736496 210.409012,133.708786 
	C212.677444,135.738907 217.265732,138.284500 218.888489,137.334106 
	C223.396637,134.693863 227.756546,130.888214 230.557098,126.508430 
	C233.207565,122.363396 229.161438,118.746696 226.238190,115.823486 
	C221.200363,110.785728 215.940552,105.969940 210.717316,101.007248 
	C217.632187,93.512794 223.818527,86.807961 230.366470,79.420776 
M377.894867,58.348026 
	C377.894867,48.570435 377.894867,38.792839 377.894867,28.330988 
	C386.472382,28.330988 394.723846,28.330988 403.023010,28.330988 
	C403.023010,21.919521 403.023010,16.207418 403.023010,10.802235 
	C388.357147,10.802235 374.127533,10.802235 360.515076,10.802235 
	C360.515076,54.311756 360.515076,97.155624 360.515076,139.830627 
	C375.779663,139.830627 389.987732,139.830627 404.274628,139.830627 
	C404.274628,133.703217 404.274628,128.114258 404.274628,121.911514 
	C395.576019,121.911514 387.187500,121.911514 378.503479,121.911514 
	C378.503479,109.017578 378.503479,96.741684 378.503479,83.822281 
	C384.643799,83.403435 390.684113,82.991409 396.981934,82.561813 
	C396.981934,76.656860 396.981934,71.087875 396.981934,65.311592 
	C390.643127,65.311592 384.583466,65.311592 377.904968,65.311592 
	C377.904968,63.206573 377.904968,61.251881 377.894867,58.348026 
M36.150143,133.519073 
	C43.133553,134.660583 50.090378,136.297989 57.114799,136.674576 
	C59.572960,136.806381 63.393013,134.439957 64.538727,132.175781 
	C69.453644,122.462898 64.854401,114.738937 54.232513,114.043625 
	C51.155952,113.842239 48.780586,112.731606 48.672501,109.553276 
	C48.431313,102.461143 48.597141,95.355164 48.597141,87.838364 
	C53.879967,87.838364 58.744541,88.311005 63.470135,87.703148 
	C68.038254,87.115555 69.869896,83.440750 69.530197,76.130325 
	C69.381554,72.931374 68.926430,67.718102 67.155991,66.998634 
	C61.561016,64.724922 55.278732,64.142509 48.323685,62.712898 
	C48.323685,58.902046 48.556732,53.942204 48.227230,49.020023 
	C48.057659,46.486958 47.659737,43.164886 46.022297,41.684845 
	C41.064667,37.203773 34.810444,38.099747 28.999371,39.739574 
	C24.223034,41.087410 24.111328,45.518867 24.085247,49.615376 
	C24.054962,54.372047 24.078188,59.129063 24.078188,63.801796 
	C13.712110,64.402878 11.891051,65.581390 11.599687,73.008446 
	C11.441187,77.048706 11.288259,81.942116 13.334817,84.954933 
	C15.074773,87.516373 19.970501,87.934128 24.066105,89.533066 
	C24.066105,90.575195 24.026402,92.385132 24.073071,94.192833 
	C24.261923,101.508026 24.118427,108.855377 24.783838,116.128067 
	C25.450687,123.416496 28.702217,129.505402 36.150143,133.519073 
z"/>
<path fill="#F9FDFE" opacity="1.000000" stroke="none" 
	d="
M304.846191,132.194977 
	C300.031189,117.784218 295.345337,103.738335 290.659515,89.692444 
	C290.138153,89.715157 289.616791,89.737862 289.095428,89.760574 
	C288.583954,91.223885 288.032440,92.674583 287.567322,94.152489 
	C283.765594,106.232819 279.892303,118.291885 276.250092,130.420288 
	C275.321503,133.512360 273.903748,134.534027 270.605591,134.371384 
	C257.739716,133.736908 257.063568,133.981995 254.741608,121.144913 
	C249.762650,93.618820 245.540558,65.955719 241.041367,38.343372 
	C240.861984,37.242470 241.018463,36.086838 241.018463,34.514164 
	C246.827850,33.916943 252.377945,33.346375 257.980530,32.770412 
	C260.925842,53.173294 263.795258,73.050270 266.664642,92.927238 
	C267.217743,93.013992 267.770813,93.100739 268.323914,93.187492 
	C269.008026,91.745071 269.903168,90.363869 270.342255,88.850372 
	C273.313629,78.607826 276.284973,68.363045 279.032715,58.059345 
	C279.800934,55.178604 281.069397,54.085899 284.129669,53.933239 
	C297.521820,53.265182 297.689880,53.098701 302.175568,65.988152 
	C305.788727,76.370407 308.914001,86.922386 312.262573,97.396881 
	C312.856140,99.253540 313.483459,101.099396 314.095154,102.950241 
	C314.650574,102.983185 315.205963,103.016129 315.761353,103.049065 
	C321.932709,71.181526 328.104095,39.313992 334.373688,6.939209 
	C340.415558,8.208988 345.873535,9.356060 351.930878,10.629094 
	C351.620453,12.626837 351.396332,14.360723 351.077698,16.077070 
	C343.505157,56.870884 335.863312,97.652061 328.438904,138.472809 
	C327.746674,142.278915 326.346588,143.684326 322.511749,144.144089 
	C310.000427,145.644119 310.020447,145.813141 305.491028,133.968292 
	C305.312469,133.501358 305.146942,133.029434 304.846191,132.194977 
z"/>
<path fill="#FBFEFE" opacity="1.000000" stroke="none" 
	d="
M124.827553,130.987305 
	C112.258430,139.488815 99.460320,138.663071 88.234024,128.470123 
	C70.370720,112.251076 70.841225,86.601074 89.283852,71.239227 
	C100.474266,61.918137 112.201614,61.474674 124.356270,69.912994 
	C129.099136,63.999752 136.753662,61.492016 143.691986,64.724197 
	C146.113663,65.852325 148.727646,69.637939 148.789749,72.268112 
	C149.229599,90.894386 149.157318,109.537193 148.953369,128.171494 
	C148.893082,133.679886 146.462036,136.141052 140.970490,136.554398 
	C135.083481,136.997482 128.729462,137.907700 124.827553,130.987305 
M122.280869,94.469521 
	C119.352928,89.425369 115.019272,87.253258 109.269241,88.394661 
	C104.513832,89.338623 100.698135,93.468163 99.894615,98.327904 
	C99.036926,103.515221 101.163986,107.445999 105.356262,110.308815 
	C109.414772,113.080269 115.157143,112.841606 118.937325,109.920807 
	C123.531715,106.370895 124.729965,101.579483 122.280869,94.469521 
z"/>
<path fill="#FBFEFE" opacity="1.000000" stroke="none" 
	d="
M230.185669,79.761948 
	C223.818527,86.807961 217.632187,93.512794 210.717316,101.007248 
	C215.940552,105.969940 221.200363,110.785728 226.238190,115.823486 
	C229.161438,118.746696 233.207565,122.363396 230.557098,126.508430 
	C227.756546,130.888214 223.396637,134.693863 218.888489,137.334106 
	C217.265732,138.284500 212.677444,135.738907 210.409012,133.708786 
	C204.853027,128.736496 199.860077,123.135086 193.430267,116.546669 
	C190.497971,120.016708 188.015198,123.092369 185.377960,126.029320 
	C183.489059,128.132919 181.256363,129.932755 179.412933,132.071442 
	C170.122330,142.850082 162.887405,136.412125 157.535812,126.997276 
	C156.415176,125.025795 157.963608,120.415848 159.730988,118.153755 
	C163.603058,113.197784 168.338974,108.900978 172.866226,104.482643 
	C174.154861,103.225014 175.939407,102.475502 178.559769,100.822098 
	C171.973160,94.584579 166.706665,89.764145 161.643677,84.738693 
	C158.699493,81.816345 154.691208,78.185913 157.307938,74.053925 
	C160.083115,69.671730 164.432419,65.861237 168.926941,63.215733 
	C170.576614,62.244724 175.180496,64.677383 177.442154,66.680473 
	C183.033234,71.632309 188.049408,77.233269 194.068237,83.358612 
	C198.188644,79.044106 202.040054,75.005020 205.899979,70.974106 
	C206.821396,70.011871 207.763519,69.069077 208.709351,68.130692 
	C216.779846,60.123966 227.639984,63.006588 230.804794,74.128876 
	C231.258179,75.722260 230.541580,77.648552 230.185669,79.761948 
z"/>
<path fill="#FAFEFE" opacity="1.000000" stroke="none" 
	d="
M377.899902,58.822609 
	C377.904968,61.251881 377.904968,63.206573 377.904968,65.311592 
	C384.583466,65.311592 390.643127,65.311592 396.981934,65.311592 
	C396.981934,71.087875 396.981934,76.656860 396.981934,82.561813 
	C390.684113,82.991409 384.643799,83.403435 378.503479,83.822281 
	C378.503479,96.741684 378.503479,109.017578 378.503479,121.911514 
	C387.187500,121.911514 395.576019,121.911514 404.274628,121.911514 
	C404.274628,128.114258 404.274628,133.703217 404.274628,139.830627 
	C389.987732,139.830627 375.779663,139.830627 360.515076,139.830627 
	C360.515076,97.155624 360.515076,54.311756 360.515076,10.802235 
	C374.127533,10.802235 388.357147,10.802235 403.023010,10.802235 
	C403.023010,16.207418 403.023010,21.919521 403.023010,28.330988 
	C394.723846,28.330988 386.472382,28.330988 377.894867,28.330988 
	C377.894867,38.792839 377.894867,48.570435 377.899902,58.822609 
z"/>
<path fill="#FBFEFE" opacity="1.000000" stroke="none" 
	d="
M35.826622,133.329773 
	C28.702217,129.505402 25.450687,123.416496 24.783838,116.128067 
	C24.118427,108.855377 24.261923,101.508026 24.073071,94.192833 
	C24.026402,92.385132 24.066105,90.575195 24.066105,89.533066 
	C19.970501,87.934128 15.074773,87.516373 13.334817,84.954933 
	C11.288259,81.942116 11.441187,77.048706 11.599687,73.008446 
	C11.891051,65.581390 13.712110,64.402878 24.078188,63.801796 
	C24.078188,59.129063 24.054962,54.372047 24.085247,49.615376 
	C24.111328,45.518867 24.223034,41.087410 28.999371,39.739574 
	C34.810444,38.099747 41.064667,37.203773 46.022297,41.684845 
	C47.659737,43.164886 48.057659,46.486958 48.227230,49.020023 
	C48.556732,53.942204 48.323685,58.902046 48.323685,62.712898 
	C55.278732,64.142509 61.561016,64.724922 67.155991,66.998634 
	C68.926430,67.718102 69.381554,72.931374 69.530197,76.130325 
	C69.869896,83.440750 68.038254,87.115555 63.470135,87.703148 
	C58.744541,88.311005 53.879967,87.838364 48.597141,87.838364 
	C48.597141,95.355164 48.431313,102.461143 48.672501,109.553276 
	C48.780586,112.731606 51.155952,113.842239 54.232513,114.043625 
	C64.854401,114.738937 69.453644,122.462898 64.538727,132.175781 
	C63.393013,134.439957 59.572960,136.806381 57.114799,136.674576 
	C50.090378,136.297989 43.133553,134.660583 35.826622,133.329773 
z"/>
<path fill="#11BBD0" opacity="1.000000" stroke="none" 
	d="
M122.455864,94.810486 
	C124.729965,101.579483 123.531715,106.370895 118.937325,109.920807 
	C115.157143,112.841606 109.414772,113.080269 105.356262,110.308815 
	C101.163986,107.445999 99.036926,103.515221 99.894615,98.327904 
	C100.698135,93.468163 104.513832,89.338623 109.269241,88.394661 
	C115.019272,87.253258 119.352928,89.425369 122.455864,94.810486 
z"/>
</svg>